# xmcd
#
# Track frame offsets:
#	150
#	17938
#	36933
#	51735
#	70035
#	99880
#	118090
#	141790
#	162113
#	181138
#
# Disc length: 2673 seconds
#
# Revision: 19
# Processed by: cddbd v1.5.2PL0 Copyright (c) Steve Scherf et al.
# Submitted via: Jack! The Knife 18 Bulletproof
#
DISCID=860a6f0a
DTITLE=White Lion - Pride
DYEAR=1987
DGENRE=Hard Rock
TTITLE0=Hungry
TTITLE1=Lonely Nights
TTITLE2=Don't Give Up
TTITLE3=Sweet Little Loving
TTITLE4=Lady Of The Valley
TTITLE5=Wait
TTITLE6=All You Need Is Rock N Roll
TTITLE7=Tell Me
TTITLE8=All Join Our Hands
TTITLE9=When The Children Cry
EXTD=Michael Wagener
EXTT0=Bratta, Tramp
EXTT1=Bratta, Tramp
EXTT2=Bratta, Tramp
EXTT3=Bratta, Tramp
EXTT4=Bratta, Tramp
EXTT5=Bratta, Tramp
EXTT6=Bratta, Tramp
EXTT7=Bratta, Tramp
EXTT8=Bratta, Tramp
EXTT9=Bratta, Tramp
PLAYORDER=
